<svg xmlns="http://www.w3.org/2000/svg" xmlns:xlink="http://www.w3.org/1999/xlink" version="1.1" x="0px" y="0px" viewBox="13 27 76 75"
  xml:space="preserve">
  <g>
    <path d="M85.2,75.4c1.1-3.5,1.8-7.2,1.8-11.1s-0.6-7.6-1.8-11.1c0,0,0,0,0,0c0,0,0,0,0,0c-2.4-7.2-7-13.5-13-17.9   c0,0,0-0.1-0.1-0.1c0,0-0.1,0-0.1,0c-5.9-4.3-13.2-6.8-21.1-6.8c-7.9,0-15.1,2.5-21.1,6.8c0,0-0.1,0-0.1,0c0,0,0,0.1-0.1,0.1   c-6,4.4-10.6,10.7-13,17.9c0,0,0,0,0,0c0,0,0,0,0,0c-1.1,3.5-1.8,7.2-1.8,11.1s0.6,7.6,1.8,11.1c0,0,0,0,0,0c0,0,0,0,0,0   c2.4,7.2,7,13.5,13,17.9c0,0,0,0.1,0.1,0.1c0,0,0.1,0,0.1,0.1c5.9,4.3,13.2,6.8,21,6.8c7.9,0,15.1-2.5,21-6.8c0,0,0.1,0,0.1-0.1   c0,0,0-0.1,0.1-0.1C78.2,88.9,82.8,82.7,85.2,75.4C85.2,75.4,85.2,75.4,85.2,75.4C85.2,75.4,85.2,75.4,85.2,75.4z M71.6,90.9   l-3.1-4.3c-0.4-0.5-1.1-0.6-1.6-0.2c-0.5,0.4-0.6,1.1-0.2,1.6l1.3,1.8c0,0,0,0,0,0l1.8,2.5C64.7,95.7,58.6,97.8,52,98V95v-2.2   c0-0.6-0.5-1.1-1.1-1.1c-0.6,0-1.1,0.5-1.1,1.1V95V98c-6.6-0.2-12.7-2.3-17.8-5.8l3.1-4.3c0.2-0.3,0.2-0.6,0.2-0.8   c0-0.3-0.2-0.6-0.5-0.7c-0.1-0.1-0.3-0.2-0.4-0.2c-0.1,0-0.3,0-0.4,0c0,0,0,0-0.1,0c-0.1,0-0.3,0.1-0.4,0.1c0,0,0,0,0,0   c-0.1,0.1-0.2,0.2-0.3,0.3L32,88.5c0,0,0,0,0,0l-1.8,2.5c-5-3.9-8.8-9.1-11-15.1l5.1-1.6c0.6-0.2,0.9-0.8,0.7-1.4   c-0.1-0.4-0.5-0.7-1-0.8c-0.1,0-0.3,0-0.4,0l-2.1,0.7c0,0,0,0,0,0l-2.9,0.9c-0.9-3-1.3-6.1-1.3-9.4c0-3.2,0.5-6.4,1.3-9.4l2.9,0.9   c0,0,0,0,0,0l2.1,0.7c0.1,0,0.2,0.1,0.3,0.1c0.5,0,0.9-0.3,1.1-0.8c0.2-0.6-0.1-1.2-0.7-1.4l-5.1-1.6c2.2-6,6.1-11.2,11-15.1   l1.8,2.5c0,0,0,0,0,0l1.3,1.8c0.2,0.3,0.6,0.5,0.9,0.5c0.2,0,0.5-0.1,0.7-0.2c0.5-0.4,0.6-1.1,0.2-1.6L32,36.3   c5.1-3.5,11.2-5.6,17.8-5.8v5.3c0,0.6,0.5,1.1,1.1,1.1c0.6,0,1.1-0.5,1.1-1.1v-5.3c6.6,0.2,12.7,2.3,17.8,5.8L68,38.8c0,0,0,0,0,0   l-1.3,1.8c-0.4,0.5-0.3,1.2,0.2,1.6c0.2,0.1,0.4,0.2,0.7,0.2c0.3,0,0.7-0.2,0.9-0.5l3.1-4.3c5,3.9,8.8,9.1,11,15.1l-2.9,0.9l0,0   l-2.1,0.7c-0.6,0.2-0.9,0.8-0.7,1.4c0.2,0.5,0.6,0.8,1.1,0.8c0.1,0,0.2,0,0.3-0.1l5.1-1.6c0.9,3,1.3,6.1,1.3,9.4   c0,3.2-0.5,6.4-1.3,9.4L78.3,72c-0.6-0.2-1.2,0.1-1.4,0.7c-0.2,0.6,0.1,1.2,0.7,1.4l2.1,0.7l0,0l2.9,0.9   C80.5,81.8,76.6,87,71.6,90.9z"
    />
    <path d="M46.5,37.3c0.1,0,0.1,0,0.2,0c0.6-0.1,1-0.7,0.9-1.3l-0.4-2.2c-0.1-0.6-0.7-1-1.3-0.9c-0.6,0.1-1,0.7-0.9,1.3l0.4,2.2   C45.4,36.9,45.9,37.3,46.5,37.3z"
    />
    <path d="M41.1,37.6c0.2,0.5,0.6,0.8,1.1,0.8c0.1,0,0.2,0,0.3-0.1c0.6-0.2,0.9-0.8,0.7-1.4l-0.7-2.1c-0.2-0.6-0.8-0.9-1.4-0.7   c-0.6,0.2-0.9,0.8-0.7,1.4L41.1,37.6z"
    />
    <path d="M37,39.5c0.2,0.4,0.6,0.6,1,0.6c0.2,0,0.3,0,0.5-0.1c0.6-0.3,0.8-1,0.5-1.5l-1-2c-0.3-0.6-1-0.8-1.5-0.5   c-0.6,0.3-0.8,1-0.5,1.5L37,39.5z"
    />
    <path d="M30,45c0.2,0.2,0.5,0.3,0.8,0.3s0.6-0.1,0.8-0.3c0.4-0.4,0.4-1.2,0-1.6L30,41.8c-0.4-0.4-1.2-0.4-1.6,0   c-0.4,0.4-0.4,1.2,0,1.6L30,45z"
    />
    <path d="M27.3,48.5c0.2,0.1,0.4,0.2,0.7,0.2c0.3,0,0.7-0.2,0.9-0.5c0.4-0.5,0.3-1.2-0.2-1.6l-1.8-1.3c-0.5-0.4-1.2-0.3-1.6,0.2   c-0.4,0.5-0.3,1.2,0.2,1.6L27.3,48.5z"
    />
    <path d="M25.6,52.5c0.4,0,0.8-0.2,1-0.6c0.3-0.6,0.1-1.2-0.5-1.5l-2-1c-0.6-0.3-1.2-0.1-1.5,0.5c-0.3,0.6-0.1,1.2,0.5,1.5l2,1   C25.2,52.5,25.4,52.5,25.6,52.5z"
    />
    <path d="M23,58.7l-2.2-0.4c-0.6-0.1-1.2,0.3-1.3,0.9c-0.1,0.6,0.3,1.2,0.9,1.3l2.2,0.4c0.1,0,0.1,0,0.2,0c0.5,0,1-0.4,1.1-0.9   C24,59.4,23.6,58.8,23,58.7z"
    />
    <path d="M22.5,65.4c0.6,0,1.1-0.5,1.1-1.1s-0.5-1.1-1.1-1.1h-2.2c-0.6,0-1.1,0.5-1.1,1.1s0.5,1.1,1.1,1.1H22.5z" />
    <path d="M22.7,67.6L20.4,68c-0.6,0.1-1,0.7-0.9,1.3c0.1,0.6,0.6,0.9,1.1,0.9c0.1,0,0.1,0,0.2,0l2.2-0.4c0.6-0.1,1-0.7,0.9-1.3   S23.3,67.5,22.7,67.6z"
    />
    <path d="M26.6,76.7c-0.3-0.6-1-0.8-1.5-0.5l-2,1c-0.6,0.3-0.8,1-0.5,1.5c0.2,0.4,0.6,0.6,1,0.6c0.2,0,0.3,0,0.5-0.1l2-1   C26.7,77.9,26.9,77.2,26.6,76.7z"
    />
    <path d="M28.8,80.3c-0.4-0.5-1.1-0.6-1.6-0.2l-1.8,1.3c-0.5,0.4-0.6,1.1-0.2,1.6c0.2,0.3,0.6,0.5,0.9,0.5c0.2,0,0.5-0.1,0.7-0.2   l1.8-1.3C29.1,81.5,29.2,80.8,28.8,80.3z"
    />
    <path d="M30,83.6l-1.6,1.6c-0.4,0.4-0.4,1.2,0,1.6c0.2,0.2,0.5,0.3,0.8,0.3s0.6-0.1,0.8-0.3l1.6-1.6c0.4-0.4,0.4-1.2,0-1.6   S30.5,83.2,30,83.6z"
    />
    <path d="M38.5,88.6c-0.6-0.3-1.2-0.1-1.5,0.5l-1,2c-0.3,0.6-0.1,1.2,0.5,1.5c0.2,0.1,0.3,0.1,0.5,0.1c0.4,0,0.8-0.2,1-0.6l1-2   C39.3,89.6,39.1,88.9,38.5,88.6z"
    />
    <path d="M42.5,90.3c-0.6-0.2-1.2,0.1-1.4,0.7l-0.7,2.1c-0.2,0.6,0.1,1.2,0.7,1.4c0.1,0,0.2,0.1,0.3,0.1c0.5,0,0.9-0.3,1.1-0.8   l0.7-2.1C43.4,91.1,43.1,90.5,42.5,90.3z"
    />
    <path d="M46.6,91.3c-0.6-0.1-1.2,0.3-1.3,0.9L45,94.4c-0.1,0.6,0.3,1.2,0.9,1.3c0.1,0,0.1,0,0.2,0c0.5,0,1-0.4,1.1-0.9l0.4-2.2   C47.7,91.9,47.3,91.4,46.6,91.3z"
    />
    <path d="M55.2,91.3c-0.6,0.1-1,0.7-0.9,1.3l0.4,2.2c0.1,0.6,0.6,0.9,1.1,0.9c0.1,0,0.1,0,0.2,0c0.6-0.1,1-0.7,0.9-1.3l-0.4-2.2   C56.4,91.6,55.8,91.2,55.2,91.3z"
    />
    <path d="M60.8,91c-0.2-0.6-0.8-0.9-1.4-0.7c-0.6,0.2-0.9,0.8-0.7,1.4l0.7,2.1c0.2,0.5,0.6,0.8,1.1,0.8c0.1,0,0.2,0,0.3-0.1   c0.6-0.2,0.9-0.8,0.7-1.4L60.8,91z"
    />
    <path d="M64.8,89.1c-0.3-0.6-1-0.8-1.5-0.5c-0.6,0.3-0.8,1-0.5,1.5l1,2c0.2,0.4,0.6,0.6,1,0.6c0.2,0,0.3,0,0.5-0.1   c0.6-0.3,0.8-1,0.5-1.5L64.8,89.1z"
    />
    <path d="M71.8,83.6c-0.4-0.4-1.2-0.4-1.6,0c-0.4,0.4-0.4,1.2,0,1.6l1.6,1.6c0.2,0.2,0.5,0.3,0.8,0.3s0.6-0.1,0.8-0.3   c0.4-0.4,0.4-1.2,0-1.6L71.8,83.6z"
    />
    <path d="M74.6,80.1c-0.5-0.4-1.2-0.3-1.6,0.2c-0.4,0.5-0.3,1.2,0.2,1.6l1.8,1.3c0.2,0.1,0.4,0.2,0.7,0.2c0.3,0,0.7-0.2,0.9-0.5   c0.4-0.5,0.3-1.2-0.2-1.6L74.6,80.1z"
    />
    <path d="M78.8,77.2l-2-1c-0.6-0.3-1.2-0.1-1.5,0.5c-0.3,0.6-0.1,1.2,0.5,1.5l2,1c0.2,0.1,0.3,0.1,0.5,0.1c0.4,0,0.8-0.2,1-0.6   C79.5,78.2,79.3,77.5,78.8,77.2z"
    />
    <path d="M78.8,69.9l2.2,0.4c0.1,0,0.1,0,0.2,0c0.5,0,1-0.4,1.1-0.9c0.1-0.6-0.3-1.2-0.9-1.3l-2.2-0.4c-0.6-0.1-1.2,0.3-1.3,0.9   C77.8,69.2,78.2,69.8,78.8,69.9z"
    />
    <path d="M79.3,63.2c-0.6,0-1.1,0.5-1.1,1.1s0.5,1.1,1.1,1.1h2.2c0.6,0,1.1-0.5,1.1-1.1s-0.5-1.1-1.1-1.1H79.3z" />
    <path d="M79,61c0.1,0,0.1,0,0.2,0l2.2-0.4c0.6-0.1,1-0.7,0.9-1.3c-0.1-0.6-0.7-1-1.3-0.9l-2.2,0.4c-0.6,0.1-1,0.7-0.9,1.3   C78,60.6,78.5,61,79,61z"
    />
    <path d="M75.2,51.9c0.2,0.4,0.6,0.6,1,0.6c0.2,0,0.3,0,0.5-0.1l2-1c0.6-0.3,0.8-1,0.5-1.5c-0.3-0.6-1-0.8-1.5-0.5l-2,1   C75.2,50.7,75,51.3,75.2,51.9z"
    />
    <path d="M73,48.2c0.2,0.3,0.6,0.5,0.9,0.5c0.2,0,0.5-0.1,0.7-0.2l1.8-1.3c0.5-0.4,0.6-1.1,0.2-1.6c-0.4-0.5-1.1-0.6-1.6-0.2   l-1.8,1.3C72.8,47,72.6,47.7,73,48.2z"
    />
    <path d="M71,45.3c0.3,0,0.6-0.1,0.8-0.3l1.6-1.6c0.4-0.4,0.4-1.2,0-1.6c-0.4-0.4-1.2-0.4-1.6,0l-1.6,1.6c-0.4,0.4-0.4,1.2,0,1.6   C70.4,45.2,70.7,45.3,71,45.3z"
    />
    <path d="M63.3,40c0.2,0.1,0.3,0.1,0.5,0.1c0.4,0,0.8-0.2,1-0.6l1-2c0.3-0.6,0.1-1.2-0.5-1.5c-0.6-0.3-1.2-0.1-1.5,0.5l-1,2   C62.5,39,62.8,39.7,63.3,40z"
    />
    <path d="M59.4,38.3c0.1,0,0.2,0.1,0.3,0.1c0.5,0,0.9-0.3,1.1-0.8l0.7-2.1c0.2-0.6-0.1-1.2-0.7-1.4c-0.6-0.2-1.2,0.1-1.4,0.7   l-0.7,2.1C58.4,37.5,58.8,38.1,59.4,38.3z"
    />
    <path d="M55.2,37.3c0.1,0,0.1,0,0.2,0c0.5,0,1-0.4,1.1-0.9l0.4-2.2c0.1-0.6-0.3-1.2-0.9-1.3c-0.6-0.1-1.2,0.3-1.3,0.9L54.3,36   C54.2,36.7,54.6,37.2,55.2,37.3z"
    />
    <path d="M50.9,46.8c-9.7,0-17.5,7.9-17.5,17.5c0,9.7,7.9,17.5,17.5,17.5c9.7,0,17.5-7.9,17.5-17.5C68.4,54.6,60.6,46.8,50.9,46.8z    M50.9,77.8c-7.5,0-13.5-6.1-13.5-13.5s6.1-13.5,13.5-13.5c7.5,0,13.5,6.1,13.5,13.5S58.4,77.8,50.9,77.8z"
    />
    <path d="M55,42.5l-3.3-3.3c-0.4-0.4-1.2-0.4-1.6,0l-3.3,3.3c-10.5,1.9-18.1,11.1-18.1,21.8c0,12.2,9.9,22.2,22.2,22.2   c12.2,0,22.2-9.9,22.2-22.2C73.1,53.6,65.5,44.4,55,42.5z M50.9,84.2c-11,0-19.9-8.9-19.9-19.9c0-9.8,7-18,16.6-19.6   c0.3,0,0.5-0.2,0.7-0.4l2.7-2.7l2.7,2.7c0.2,0.2,0.4,0.3,0.6,0.3c9.6,1.6,16.6,9.9,16.6,19.6C70.8,75.3,61.9,84.2,50.9,84.2z"
    />
  </g>
 <!-- <text x="0" y="140" fill="#000000" font-size="5px" font-weight="bold" font-family="'Helvetica Neue', Helvetica, Arial-Unicode, Arial, Sans-serif">Created by Carl Holderness</text>
  <text x="0" y="145" fill="#000000" font-size="5px" font-weight="bold" font-family="'Helvetica Neue', Helvetica, Arial-Unicode, Arial, Sans-serif">from the Noun Project</text>-->
</svg>
